<svg id="Layer_1" data-name="Layer 1" xmlns="http://www.w3.org/2000/svg" xmlns:xlink="http://www.w3.org/1999/xlink" viewBox="0 0 863.26 858.58"><defs><style>.cls-1{fill:#f17075;}.cls-2{fill:#eb2d34;}.cls-3{fill:#231f20;}.cls-10,.cls-4,.cls-6{fill:#fff;}.cls-10,.cls-5,.cls-6,.cls-7,.cls-8{stroke:#000;}.cls-10,.cls-5,.cls-6,.cls-7,.cls-8,.cls-9{stroke-miterlimit:10;}.cls-7{stroke-width:0.7px;}.cls-8{stroke-width:0.2px;}.cls-9{stroke:red;}.cls-10,.cls-9{stroke-width:8px;}</style><symbol id="Arrow_3" data-name="Arrow 3" viewBox="0 0 23.18 21.53"><polygon class="cls-2" points="0 21.53 8.92 10.76 0 0 23.18 10.76 0 21.53"/><polygon class="cls-3" points="0 21.53 8.92 10.76 0 0 23.18 10.76 0 21.53"/></symbol><symbol id="Arrow_2" data-name="Arrow 2" viewBox="0 0 23.18 21.53"><polygon class="cls-1" points="0 21.53 8.92 10.76 0 0 23.18 10.76 0 21.53"/><polygon class="cls-2" points="0 21.53 8.92 10.76 0 0 23.18 10.76 0 21.53"/></symbol></defs><path class="cls-4" d="M651,857.5a252.52,252.52,0,1,1,178.54-74A250.79,250.79,0,0,1,651,857.5Z" transform="translate(-224.1 -181.44)"/><path d="M651,358a246.28,246.28,0,1,1-96.14,19.41A245.37,245.37,0,0,1,651,358m0-11c-142.49,0-258,115.51-258,258S508.51,863,651,863,909,747.49,909,605,793.49,347,651,347Z" transform="translate(-224.1 -181.44)"/><ellipse cx="426.06" cy="339.81" rx="120.53" ry="119.75"/><path d="M650.16,402A119.61,119.61,0,0,1,735,436.93a118.69,118.69,0,0,1,0,168.64,120.58,120.58,0,0,1-169.75,0,118.71,118.71,0,0,1,0-168.64A119.63,119.63,0,0,1,650.16,402m0-1c-66.84,0-121,53.84-121,120.25s54.19,120.25,121,120.25,121-53.84,121-120.25S717,401,650.16,401Z" transform="translate(-224.1 -181.44)"/><path class="cls-5" d="M882.79,679.62a9.24,9.24,0,0,1-.64-2.19c-.53-3.54-2.12-7.8-3.2-12.14a1,1,0,0,1-.08-.14,19.24,19.24,0,0,1-1.12-3.11c-.23-.68-.47-1.35-.68-2a12.42,12.42,0,0,1-2-2.16c-1.33-1.78-2.69-3.7-4-5.4a35.87,35.87,0,0,0-3.56-3.94,11.38,11.38,0,0,1-3.92-3.15l-.22,0a2.35,2.35,0,0,1-1.31-.89,2.21,2.21,0,0,1-1.16-.93,5.68,5.68,0,0,1-.91-.66,4.31,4.31,0,0,1-.37-.37,1,1,0,0,1-.3-.19l.16.12a12.78,12.78,0,0,0-1.69-1,1.36,1.36,0,0,1-.41-.38l-.61-.32c-1.13-.64-2.27-1.26-3.41-1.88-.4-.22-.77-.47-1.15-.72a1.48,1.48,0,0,1-.48-.15,24.21,24.21,0,0,0-3.06-1.19l-1.83-.73a2.32,2.32,0,0,1-.38-.06,7.92,7.92,0,0,1-1.06-.44,12.2,12.2,0,0,0-2-.44,8.72,8.72,0,0,1-1.1-.34c-.4-.13-.81-.22-1.21-.33l-.52-.14a6.93,6.93,0,0,0-1.22-.24h0a1.19,1.19,0,0,1-.7-.22,8.2,8.2,0,0,1-3.36-.67H650.67v81.74H875.87a1.91,1.91,0,0,1,.13-.45,7.52,7.52,0,0,1,1-1.51c.06-.12.13-.23.19-.34l.19-.37a.27.27,0,0,1,0-.08l0-.08a1.63,1.63,0,0,1,.42-.58.77.77,0,0,0,.07-.16c.08-.17.05-.11-.06.16h0a3.28,3.28,0,0,0,.27-.69c.27-.67.49-1.36.8-2a13.24,13.24,0,0,1,.79-1.3,5.37,5.37,0,0,1,.36-.66c0-.11.07-.22.1-.33a6,6,0,0,1,.9-2h0a7.77,7.77,0,0,1,.52-1.87,14.23,14.23,0,0,0,.89-2.55,31.37,31.37,0,0,1,.45-4.43h0c0-2.75.34-5.49.4-8.24A62.7,62.7,0,0,0,882.79,679.62Z" transform="translate(-224.1 -181.44)"/><polyline class="cls-6" points="569.37 536.08 569.37 484.2 597.3 484.2 597.3 536.08"/><line class="cls-6" x1="570.44" y1="534.74" x2="570.7" y2="534.74"/><line class="cls-6" x1="569.81" y1="534.74" x2="570.44" y2="534.74"/><path class="cls-6" d="M792.94,716.19h-.8" transform="translate(-224.1 -181.44)"/><line class="cls-6" x1="569.32" y1="534.74" x2="568.83" y2="534.74"/><line class="cls-6" x1="569.81" y1="534.74" x2="569.32" y2="534.74"/><path class="cls-6" d="M792.14,716.19h.93" transform="translate(-224.1 -181.44)"/><path class="cls-5" d="M422.28,680.48a8.6,8.6,0,0,0,.64-2.18c.53-3.55,2.12-7.8,3.2-12.14a1,1,0,0,0,.08-.14,19.59,19.59,0,0,0,1.12-3.11c.23-.68.47-1.35.68-2a12.42,12.42,0,0,0,2-2.16c1.33-1.79,2.69-3.7,4-5.41a37.8,37.8,0,0,1,3.56-3.93,11.5,11.5,0,0,0,3.92-3.15l.22,0a2.35,2.35,0,0,0,1.31-.89,2.21,2.21,0,0,0,1.16-.93,7.08,7.08,0,0,0,.92-.66c.13-.12.24-.25.36-.37a1,1,0,0,0,.3-.19l-.15.12a12.12,12.12,0,0,1,1.68-1,1.15,1.15,0,0,0,.41-.38c.2-.1.42-.21.61-.32,1.13-.63,2.27-1.25,3.41-1.87.4-.22.77-.48,1.15-.73a1.46,1.46,0,0,0,.48-.14,25.88,25.88,0,0,1,3.06-1.2l1.83-.72c.13,0,.26,0,.38-.06a7.85,7.85,0,0,0,1.06-.45,12.46,12.46,0,0,1,2-.43,8.72,8.72,0,0,0,1.1-.34c.4-.14.81-.22,1.21-.34l.52-.13a6.93,6.93,0,0,1,1.22-.24h0a1.13,1.13,0,0,0,.7-.23,8,8,0,0,0,3.36-.66H654.4v81.73H429.2a1.71,1.71,0,0,0-.13-.44,7.43,7.43,0,0,0-1-1.52c-.06-.11-.13-.22-.19-.34s-.13-.24-.19-.37a.17.17,0,0,0,0-.07l0-.08a1.52,1.52,0,0,0-.42-.58,1.11,1.11,0,0,1-.07-.16c-.08-.17,0-.11.06.16h0a3.28,3.28,0,0,1-.27-.69c-.26-.67-.49-1.36-.8-2a13.24,13.24,0,0,0-.79-1.3,5.48,5.48,0,0,0-.36-.67c0-.11-.07-.22-.1-.33a6.12,6.12,0,0,0-.9-2h0a7.27,7.27,0,0,0-.52-1.86,14.51,14.51,0,0,1-.89-2.55,31.37,31.37,0,0,0-.45-4.43h0c-.05-2.75-.34-5.49-.4-8.24A63,63,0,0,1,422.28,680.48Z" transform="translate(-224.1 -181.44)"/><polyline class="cls-6" points="284.84 534.28 284.84 482.41 256.91 482.41 256.91 534.28"/><rect class="cls-7" x="432.38" y="532.08" width="135.66" height="2.66"/><rect class="cls-8" x="595.97" y="533.41" width="55.86" height="2.66"/><line class="cls-9" x1="430.65" y1="45.35" x2="431.85" y2="168.95"/><use width="23.18" height="21.53" transform="matrix(3.89, -0.01, 0.01, 3.83, 772.84, 381.66)" xlink:href="#Arrow_3"/><line class="cls-10" x1="808.73" y1="422.99" x2="685.13" y2="424.19"/><use width="23.18" height="21.53" transform="matrix(-3.89, 0.01, -0.01, -3.83, 90.41, 468.75)" xlink:href="#Arrow_3"/><line class="cls-10" x1="45.52" y1="428.98" x2="169.12" y2="427.78"/><use width="23.18" height="21.53" transform="matrix(0.01, 3.89, -3.83, 0.01, 471.87, 768.16)" xlink:href="#Arrow_3"/><line class="cls-10" x1="430.98" y1="804.89" x2="429.78" y2="681.29"/><use width="23.18" height="21.53" transform="matrix(-0.01, -3.89, 3.83, -0.01, 389.27, 90.41)" xlink:href="#Arrow_2"/></svg>